<svg id="add-to-cart" xmlns="http://www.w3.org/2000/svg" width="20.56" height="20.732" viewBox="0 0 20.56 20.732">
  <g id="Group_2" data-name="Group 2" transform="translate(5.649 5.652)">
    <path id="Path_69" data-name="Path 69" d="M122.949,292.424a2.262,2.262,0,1,1,2.275-2.224A2.269,2.269,0,0,1,122.949,292.424Z" transform="translate(-120.7 -277.344)" fill="#fff"/>
    <path id="Path_70" data-name="Path 70" d="M240.7,290.168a2.262,2.262,0,1,1,2.268,2.256A2.265,2.265,0,0,1,240.7,290.168Z" transform="translate(-233.16 -277.344)" fill="#fff"/>
    <path id="Path_71" data-name="Path 71" d="M166.846,124.051c0,.647.006,1.263,0,1.885a.754.754,0,1,1-1.508-.031v-1.854H163.5a.756.756,0,1,1,0-1.508h1.835V120.7a.739.739,0,0,1,.377-.685.75.75,0,0,1,1.131.647c.013.534,0,1.068,0,1.6v.289h.5c.465,0,.924-.006,1.389,0a.751.751,0,0,1,0,1.5C168.121,124.058,167.5,124.051,166.846,124.051Z" transform="translate(-160.06 -119.905)" fill="#fff"/>
  </g>
  <path id="Path_72" data-name="Path 72" d="M49.762,33.345H34.726c-.075-.383-.145-.748-.22-1.106s-.145-.741-.226-1.106a1.486,1.486,0,0,0-1.451-1.175c-.4-.006-.8,0-1.2,0a.757.757,0,1,0,0,1.508h1.181c.025.1.044.182.057.264.748,3.695,1.483,7.4,2.237,11.09a2.238,2.238,0,0,0,2.249,1.835q5.127.009,10.248,0a2.264,2.264,0,0,0,2.281-1.91c.434-2.256.873-4.511,1.3-6.767a7.013,7.013,0,0,0,.176-1.137A1.491,1.491,0,0,0,49.762,33.345Z" transform="translate(-30.799 -29.956)" fill="#fff"/>
</svg>
