<svg xmlns="http://www.w3.org/2000/svg" width="39.335" height="24.878" viewBox="0 0 39.335 24.878">
  <path id="Path_38" data-name="Path 38" d="M39.235,20.5a.84.84,0,0,1-.86.44c-.573-.02-1.147,0-1.751,0a3.965,3.965,0,0,1-1.536,3.113,3.8,3.8,0,0,1-2.54.819,3.945,3.945,0,0,1-3.769-3.9H14.944a3.934,3.934,0,0,1-1.71,3.216,3.768,3.768,0,0,1-2.509.676,3.955,3.955,0,0,1-3.615-3.9c-.133-.01-.266-.02-.4-.02H4.1c-1.106,0-1.567-.461-1.577-1.557V18.3c-.614,0-1.2-.02-1.782.01a.844.844,0,0,1-.84-.42V17.5a.826.826,0,0,1,.789-.44c1.854.01,3.707,0,5.571,0a1.239,1.239,0,0,1,.195.01.615.615,0,0,1,.594.635.6.6,0,0,1-.635.584c-.727.01-1.454,0-2.192.01h-.44v1.413h1.27c.666,0,1.331-.01,2,0a.377.377,0,0,0,.4-.266,3.75,3.75,0,0,1,3.595-2.366,3.749,3.749,0,0,1,3.564,2.355.377.377,0,0,0,.389.277c4.086-.01,8.162-.01,12.248-.01.061,0,.123-.01.225-.02.01-.143.02-.287.02-.42,0-1.342-.01-2.683.01-4.035a1,1,0,0,1,.307-.686c.379-.307.9.031.911.563.01.911,0,1.813,0,2.724,0,.512-.01,1.024.01,1.536a.908.908,0,0,0,.113.317c.092-.082.225-.143.277-.246a3.895,3.895,0,0,1,7.128-.082.474.474,0,0,0,.533.348c.389-.031.789-.01,1.2-.01V16.969c-.266,0-.512.01-.768,0a1.9,1.9,0,0,1-1.833-1.854c-.01-.43-.01-.87,0-1.3a.619.619,0,0,1,.7-.686c.584-.01,1.167,0,1.761,0a1.763,1.763,0,0,0-1.618-1.372c-2.478-.031-4.967-.01-7.5-.01,0,.225.01.44,0,.655a.617.617,0,0,1-.614.645.629.629,0,0,1-.614-.614c-.01-.113,0-.225,0-.348V1.249H3.761v11.1c-.01.43-.236.7-.584.707a.629.629,0,0,1-.635-.707c-.01-1.352,0-2.714,0-4.066v-6.8A1.306,1.306,0,0,1,4.027,0H27.253a1.286,1.286,0,0,1,1.464,1.454V2.6c.164.01.3.02.43.02,1.321,0,2.642.031,3.953-.01A2.7,2.7,0,0,1,35.917,5.96c-.031.2-.246.389-.42.645.3,1.167.6,2.448.932,3.717a.376.376,0,0,0,.236.246,3.21,3.21,0,0,1,2.509,2.6.478.478,0,0,0,.051.1Q39.24,16.9,39.235,20.5ZM35.18,10.5a2.5,2.5,0,0,0-.061-.317c-.277-1.106-.553-2.2-.819-3.308a.409.409,0,0,0-.481-.389c-1.557.02-3.123.01-4.68.01-.123,0-.246.01-.379.02V10.5ZM32.7,23.646a2.668,2.668,0,1,0-2.673-2.663A2.691,2.691,0,0,0,32.7,23.646Zm-21.68,0a2.668,2.668,0,1,0-2.652-2.673A2.677,2.677,0,0,0,11.022,23.646ZM28.748,3.861V5.233h5.94A1.311,1.311,0,0,0,33.3,3.861c-1.024-.01-2.048,0-3.072,0ZM37.986,15.72V14.4H36.654C36.5,15.576,36.828,15.894,37.986,15.72Z" transform="translate(0.1)" fill="#fff"/>
</svg>
