<svg xmlns="http://www.w3.org/2000/svg" width="36.415" height="36.415" viewBox="0 0 36.415 36.415">
  <g id="Group_1191" data-name="Group 1191" transform="translate(1724 3738)">
    <path id="Path_232" data-name="Path 232" d="M0,17.07c.095-.678.163-1.361.284-2.034A17.925,17.925,0,0,1,5.121,5.562c.317-.331.611-.369.862-.123.236.23.207.553-.095.871a16.4,16.4,0,0,0-4.471,8.567A16.75,16.75,0,0,0,6.253,30.454a15.868,15.868,0,0,0,8.564,4.539A16.752,16.752,0,0,0,31.14,29.45,15.646,15.646,0,0,0,35.18,20.6c.8-7.091-1.727-12.787-7.66-16.75a16.859,16.859,0,0,0-19.264.4c-.048.034-.095.068-.146.1A.549.549,0,0,1,7.3,4.263a.522.522,0,0,1,.19-.766c.578-.391,1.153-.791,1.759-1.138a17.755,17.755,0,0,1,7.583-2.3A2.948,2.948,0,0,0,17.141,0h2.2c.095.02.182.045.274.059C20.554.2,21.5.29,22.422.5A18.173,18.173,0,0,1,36.139,15.069c.111.664.19,1.334.276,2v2.276c-.02.095-.046.182-.06.275-.123.842-.2,1.694-.374,2.526a18.2,18.2,0,0,1-14.6,13.984c-.675.11-1.356.19-2.034.284H17.07c-.08-.019-.157-.046-.238-.057-.831-.121-1.67-.2-2.491-.366A18.21,18.21,0,0,1,.284,21.416c-.112-.688-.19-1.38-.284-2.07Z" transform="translate(-1724 -3738)" fill="#fff"/>
    <path id="Path_236" data-name="Path 236" d="M71.463,174.539c.511.095.995.19,1.478.284.128.024.259.029.387.054a.507.507,0,0,1,.451.6.5.5,0,0,1-.618.435c-.766-.139-1.527-.311-2.292-.457a.565.565,0,0,0-.385.03,4.826,4.826,0,0,1-6.217-.794,6.622,6.622,0,0,1-1.517-6.669,10.169,10.169,0,0,1,3.363-4.909.5.5,0,0,1,.622-.084.532.532,0,0,1,.285.6,3.063,3.063,0,0,0,1.056,2.935c.616.553,1.273,1.061,1.907,1.6a5.6,5.6,0,0,1,2.041,2.957,4.118,4.118,0,0,1-.452,3.216A2.12,2.12,0,0,0,71.463,174.539Zm-5.538-9.832c-.413.529-.786.948-1.1,1.417a6.447,6.447,0,0,0-1.115,5.422,4.8,4.8,0,0,0,2.655,3.366,3.615,3.615,0,0,0,3.059-.051c-.156-.095-.265-.163-.375-.229a7.221,7.221,0,0,1-3.263-3.757.876.876,0,0,1-.1-.474c.053-.18.19-.423.343-.462a.912.912,0,0,1,.586.179c.089.052.109.227.154.348a6.544,6.544,0,0,0,3.649,3.667,7.414,7.414,0,0,0,.386-.664,3.365,3.365,0,0,0-.784-3.793,23.594,23.594,0,0,0-1.822-1.583A5.356,5.356,0,0,1,65.925,164.707Z" transform="translate(-1780.516 -3885.508)" fill="#fff"/>
    <path id="Path_237" data-name="Path 237" d="M111.405,73.818c-.416.516-.8.982-1.172,1.453-.284.357-.688.366-.91.014a.514.514,0,0,1,.061-.656c.5-.583,1.012-1.157,1.509-1.742a.591.591,0,0,0,.165-.352,4.757,4.757,0,0,1,3.821-5.056,6.818,6.818,0,0,1,7.221,2.85,10.709,10.709,0,0,1,1.872,4.407.548.548,0,0,1-.9.576,3.156,3.156,0,0,0-3.217-.459c-.935.335-1.854.717-2.8,1.022a4.745,4.745,0,0,1-4.229-.434A4.206,4.206,0,0,1,111.405,73.818Zm11.22,0a8.7,8.7,0,0,0-1.517-3.035,5.909,5.909,0,0,0-4.691-2.414,4.259,4.259,0,0,0-3.288,1.248,3.668,3.668,0,0,0-1.008,2.3l.422-.238a7.163,7.163,0,0,1,5.017-.941c.407.081.6.318.536.651-.06.315-.328.474-.711.4a6.332,6.332,0,0,0-4.836,1.148c-.239.156-.246.292-.116.513a3.216,3.216,0,0,0,3.085,1.65,8.7,8.7,0,0,0,2.977-.884A5.444,5.444,0,0,1,122.626,73.818Z" transform="translate(-1822.873 -3798.921)" fill="#fff"/>
    <path id="Path_238" data-name="Path 238" d="M213.387,163.577a8.474,8.474,0,0,1-.21,2.964,6.466,6.466,0,0,1-1.164,2.371c-.264.337-.553.4-.816.2-.279-.216-.294-.5-.035-.837a6.514,6.514,0,0,0,1.087-5.112,2.4,2.4,0,0,0-1.434.19,3.525,3.525,0,0,0-2.1,2.8c-.129.721-.166,1.458-.248,2.187a5.671,5.671,0,0,1-1.492,3.722,8.5,8.5,0,0,0,4.4-.261c.121-.046.24-.1.364-.141a.488.488,0,0,1,.642.285.468.468,0,0,1-.243.68,12.576,12.576,0,0,1-1.9.554,10.815,10.815,0,0,1-4.709-.349.681.681,0,0,1-.426-.433.645.645,0,0,1,.266-.542,3.762,3.762,0,0,0,1.974-3.209,28.078,28.078,0,0,1,.452-3.194,4.282,4.282,0,0,1,3.383-3.319c.24-.056.49-.064.822-.105-.253-.569-.507-1.092-.721-1.634a.857.857,0,0,1-.036-.6.509.509,0,0,1,.928.04c.324.708.6,1.44.9,2.156a.647.647,0,0,0,.262.329,4.774,4.774,0,0,1,2.7,5.939,10.944,10.944,0,0,1-.958,2.006c-.222.4-.524.457-.82.241s-.305-.474-.051-.835a5.344,5.344,0,0,0,.992-2.7A3.645,3.645,0,0,0,213.387,163.577Z" transform="translate(-1909.656 -3882.386)" fill="#fff"/>
  </g>
</svg>
