<svg xmlns="http://www.w3.org/2000/svg" width="37.714" height="26.131" viewBox="0 0 37.714 26.131">
  <path id="Path_218" data-name="Path 218" d="M47.551,74.215H62.444a3.729,3.729,0,0,1,3.96,3.957V96.392a3.733,3.733,0,0,1-3.931,3.95H32.61a3.729,3.729,0,0,1-3.916-3.925q-.007-9.154,0-18.307a3.719,3.719,0,0,1,3.925-3.9ZM41.67,86.5,31.136,98.509a2.289,2.289,0,0,0,1.484.405H62.481a2.378,2.378,0,0,0,1.508-.421L53.455,86.486c-.142.115-.252.21-.358.3q-2.436,2.146-4.867,4.294c-.569.5-.8.5-1.373-.008Zm-10-10.721L47.544,89.795l15.864-14C62.816,75.578,32.369,75.571,31.673,75.781ZM30.207,97.41l10.4-11.849-10.082-8.9a2.063,2.063,0,0,0-.4,1.355V96.536C30.125,96.789,30.171,97.045,30.207,97.41ZM64.568,76.663,54.513,85.54,64.805,97.264l.11-.037c.017-.3.05-.593.051-.889v-18.3A2.125,2.125,0,0,0,64.568,76.663Z" transform="translate(-28.69 -74.21)" fill="#fff"/>
</svg>
