<svg xmlns="http://www.w3.org/2000/svg" width="26.659" height="40.682" viewBox="0 0 26.659 40.682">
  <g id="mouse" transform="translate(-26.064 -6.224)">
    <path id="Path_195" data-name="Path 195" d="M104.625,38.93v6.884a13.312,13.312,0,0,1-26.378,2.7,16.556,16.556,0,0,1-.259-2.746c-.023-4.57-.012-9.14-.012-13.711a13.311,13.311,0,0,1,26.272-3.179,15.932,15.932,0,0,1,.351,3.168C104.653,34.336,104.625,36.639,104.625,38.93Zm-25.244-.021c0,2.291-.012,4.582.012,6.884a16.464,16.464,0,0,0,.163,2.138A11.916,11.916,0,0,0,103.227,45.9c.012-4.64.012-9.291,0-13.931a12.956,12.956,0,0,0-.164-2.01A11.921,11.921,0,0,0,79.384,31.99C79.368,34.29,79.381,36.6,79.381,38.909Z" transform="translate(-51.91 -12.372)" fill="#fff"/>
    <path id="Path_197" data-name="Path 197" d="M185.962,73.074V67.642a.753.753,0,0,1,.432-.783.686.686,0,0,1,.947.49,1.768,1.768,0,0,1,.023.351V78.522a.784.784,0,0,1-.432.83.7.7,0,0,1-.97-.713c-.012-.83,0-1.66,0-2.5Z" transform="translate(-147.271 -54.954)" fill="#fff"/>
  </g>
</svg>
