<svg xmlns="http://www.w3.org/2000/svg" width="18.592" height="22.294" viewBox="0 0 18.592 22.294">
  <g id="user" transform="translate(-0.04)">
    <path id="Path_177" data-name="Path 177" d="M3.472,209.525c-.256-.054-.512-.093-.757-.163a3.483,3.483,0,0,1-2.662-3.337,11.854,11.854,0,0,1,.773-5.035A4.62,4.62,0,0,1,2.9,198.5a4.081,4.081,0,0,1,2.03-.484,1.587,1.587,0,0,1,.664.229c.332.18.637.4.958.6a4.955,4.955,0,0,0,5.6-.005c.261-.158.523-.316.767-.5a1.866,1.866,0,0,1,1.464-.3,4.135,4.135,0,0,1,3.157,2.27,9.238,9.238,0,0,1,1.012,3.614,17.991,17.991,0,0,1,.087,1.954,3.564,3.564,0,0,1-3.293,3.6,1.366,1.366,0,0,0-.142.038Q9.326,209.528,3.472,209.525Z" transform="translate(0 -187.231)" fill="#F58220"/>
    <path id="Path_178" data-name="Path 178" d="M75.468,0c.288.06.582.109.871.174a5.408,5.408,0,0,1,3.93,4.365,5.2,5.2,0,0,1-.767,3.7,5.261,5.261,0,0,1-4.2,2.482A5.371,5.371,0,0,1,73.851.109c.207-.044.414-.076.615-.109Z" transform="translate(-65.769)" fill="#F58220"/>
  </g>
</svg>
